<svg width="154" height="27" viewBox="0 0 154 27" fill="none" xmlns="http://www.w3.org/2000/svg">
<path d="M154 7.38723V0.330078H149.482V7.38723H149.448V9.38818C149.188 11.6949 147.361 13.4048 144.964 13.4048C142.373 13.4048 140.517 11.4087 140.517 8.81822V0.330078H135.964V8.81822C135.964 13.8255 140.027 17.8519 144.998 17.8519C146.764 17.8519 148.154 17.4067 149.369 16.5481L149.408 16.5016C149.134 18.7814 147.378 20.4619 145 20.4619H144.947C143.146 20.4619 141.703 19.4981 140.989 18.0402H136.211C137.183 21.9908 140.747 24.9041 144.974 24.909C149.942 24.9041 154 20.8802 154 15.8754V7.38723Z" fill="white"/>
<path d="M133.125 18.0354H128.538V16.783C127.313 17.6587 125.914 18.1137 124.128 18.1137C119.157 18.1137 115.097 14.0873 115.097 9.08247C115.097 4.07764 119.157 0.0512695 124.128 0.0512695C129.098 0.0512695 133.125 4.07764 133.125 9.08247V18.0354ZM128.609 9.08247C128.609 6.49199 126.684 4.49593 124.094 4.49593C121.503 4.49593 119.649 6.49199 119.649 9.08247C119.649 11.6729 121.503 13.669 124.094 13.669C126.684 13.669 128.609 11.6729 128.609 9.08247Z" fill="white"/>
<path d="M94.2256 9.08247C94.2256 4.07764 98.2519 0.0512695 103.223 0.0512695C108.193 0.0512695 112.254 4.07764 112.254 9.08247C112.254 14.0873 108.193 18.1137 103.223 18.1137C101.437 18.1137 100.038 17.6587 98.8121 16.783V24.8895H94.2256V9.08247ZM103.257 13.6666C105.847 13.6666 107.701 11.6705 107.701 9.08002C107.701 6.48954 105.847 4.49348 103.257 4.49348C100.666 4.49348 98.7412 6.48954 98.7412 9.08002C98.7412 11.6705 100.666 13.6666 103.257 13.6666Z" fill="white"/>
<path d="M8.90155 0.278809V24.6229H4.38107V6.29634C3.19958 7.16472 1.38941 7.51453 0 7.61727V3.23621C1.4946 3.09678 4.1389 2.15745 4.38107 0.28125H8.90155V0.278809Z" fill="white"/>
<path d="M11.7441 12.4509C11.7441 5.45982 17.2724 0 24.2635 0C31.2547 0 36.783 5.45982 36.783 12.4509C36.783 19.442 31.2547 24.9018 24.2635 24.9018C17.2724 24.9018 11.7441 19.442 11.7441 12.4509ZM32.26 12.4509C32.26 7.93043 28.7816 4.41775 24.2611 4.41775C19.7406 4.41775 16.2622 7.93043 16.2622 12.4509C16.2622 16.9714 19.7406 20.4841 24.2611 20.4841C28.7816 20.4841 32.26 16.9714 32.26 12.4509Z" fill="white"/>
<path d="M39.0449 12.4509C39.0449 5.45982 44.5732 0 51.5643 0C58.5554 0 64.0837 5.45982 64.0837 12.4509C64.0837 19.442 58.5554 24.9018 51.5643 24.9018C44.5732 24.9018 39.0449 19.442 39.0449 12.4509ZM59.5632 12.4509C59.5632 7.93043 56.0848 4.41775 51.5643 4.41775C47.0438 4.41775 43.5654 7.93043 43.5654 12.4509C43.5654 16.9714 47.0438 20.4841 51.5643 20.4841C56.0848 20.4841 59.5632 16.9714 59.5632 12.4509Z" fill="white"/>
<path d="M66.3467 12.4509C66.3467 5.45982 71.875 0 78.8661 0C85.8572 0 91.3855 5.45982 91.3855 12.4509C91.3855 19.442 85.8572 24.9018 78.8661 24.9018C71.875 24.9018 66.3467 19.442 66.3467 12.4509ZM86.865 12.4509C86.865 7.93043 83.3866 4.41775 78.8661 4.41775C74.3456 4.41775 70.8672 7.93043 70.8672 12.4509C70.8672 16.9714 74.3456 20.4841 78.8661 20.4841C83.3866 20.4841 86.865 16.9714 86.865 12.4509Z" fill="white"/>
</svg>
